<svg width="18" height="18" viewBox="0 0 18 18" fill="none" xmlns="http://www.w3.org/2000/svg">
<path d="M12.7501 10.0016L9.83342 11.9458V14.9425L14.9976 11.5L12.7501 10.0016ZM11.2476 8.99996L9.00008 7.50163L6.75258 8.99996L9.00008 10.4983L11.2476 8.99996ZM15.6667 8.05663L14.2526 8.99996L15.6667 9.9433V8.05663ZM14.9976 6.49996L9.83342 3.05746V6.05413L12.7501 7.9983L14.9976 6.49996ZM5.25008 7.9983L8.16675 6.05413V3.05746L3.00258 6.49996L5.25008 7.9983ZM3.00258 11.5L8.16675 14.9425V11.9458L5.25008 10.0016L3.00258 11.5ZM2.33341 9.9433L3.74758 8.99996L2.33341 8.05663V9.9433ZM0.666748 6.49996C0.666728 6.3628 0.700563 6.22776 0.765252 6.10681C0.829942 5.98586 0.923485 5.88275 1.03758 5.80663L8.53758 0.806629C8.67452 0.715263 8.83546 0.666504 9.00008 0.666504C9.16471 0.666504 9.32564 0.715263 9.46258 0.806629L16.9626 5.80663C17.0767 5.88275 17.1702 5.98586 17.2349 6.10681C17.2996 6.22776 17.3334 6.3628 17.3334 6.49996V11.5C17.3334 11.6371 17.2996 11.7722 17.2349 11.8931C17.1702 12.0141 17.0767 12.1172 16.9626 12.1933L9.46258 17.1933C9.32564 17.2847 9.16471 17.3334 9.00008 17.3334C8.83546 17.3334 8.67452 17.2847 8.53758 17.1933L1.03758 12.1933C0.923485 12.1172 0.829942 12.0141 0.765252 11.8931C0.700563 11.7722 0.666728 11.6371 0.666748 11.5V6.49996Z" fill="white"/>
</svg>
