<svg width="18" height="14" viewBox="0 0 18 14" fill="none" xmlns="http://www.w3.org/2000/svg">
<path d="M9.20342 0.333496C9.64842 0.335996 10.7617 0.346829 11.9451 0.394329L12.3651 0.412663C13.5559 0.468496 14.7459 0.565163 15.3367 0.729329C16.1242 0.950996 16.7426 1.596 16.9517 2.41433C17.2851 3.71433 17.3267 6.24933 17.3317 6.8635L17.3326 6.99016V7.13516C17.3267 7.74933 17.2851 10.2852 16.9517 11.5843C16.7401 12.4052 16.1209 13.051 15.3367 13.2693C14.7459 13.4335 13.5559 13.5302 12.3651 13.586L11.9451 13.6052C10.7617 13.6518 9.64842 13.6635 9.20342 13.6652L9.00758 13.666H8.79508C7.85342 13.6602 3.91508 13.6177 2.66175 13.2693C1.87508 13.0477 1.25591 12.4027 1.04675 11.5843C0.713415 10.2843 0.671748 7.74933 0.666748 7.13516V6.8635C0.671748 6.24933 0.713415 3.7135 1.04675 2.41433C1.25841 1.5935 1.87758 0.947663 2.66258 0.730163C3.91508 0.380996 7.85425 0.338496 8.79592 0.333496H9.20342ZM7.33258 4.0835V9.91683L12.3326 7.00016L7.33258 4.0835Z" fill="white"/>
</svg>
